<?xml version="1.0" encoding="iso-8859-1"?>
<!-- Generator: Adobe Illustrator 19.0.0, SVG Export Plug-In . SVG Version: 6.00 Build 0)  -->
<svg version="1.1" id="Layer_1" xmlns="http://www.w3.org/2000/svg" xmlns:xlink="http://www.w3.org/1999/xlink" x="0px" y="0px"
	 viewBox="0 0 512 512" style="enable-background:new 0 0 512 512;" xml:space="preserve">
<g>
	<g>
		<g>
			<circle cx="264.533" cy="51.202" r="8.533"/>
			<circle cx="315.733" cy="102.402" r="8.533"/>
			<path d="M452.233,110.993c-5.359-3.081-11.75-3.063-17.101,0.06l-42.598,24.858v-24.977c0-14.114-11.486-25.6-25.6-25.6h-0.503
				c0.316-2.807,0.503-5.641,0.503-8.533c0-42.351-34.458-76.8-76.8-76.8c-29.722,0-55.509,17.007-68.267,41.779
				C209.109,17.007,183.322,0,153.6,0c-42.342,0-76.8,34.449-76.8,76.8c0,2.893,0.188,5.726,0.503,8.533H76.8
				c-14.114,0-25.6,11.486-25.6,25.6V230.4c0,14.123,11.486,25.6,25.6,25.6h103.262c3.61,17.69,18.244,31.241,36.352,33.587
				L103.424,499.43c-2.236,4.139-0.683,9.31,3.464,11.554c1.289,0.691,2.671,1.016,4.036,1.016c3.038,0,5.982-1.621,7.518-4.489
				l103.424-192.068v188.023c0,4.719,3.823,8.533,8.533,8.533c4.71,0,8.533-3.814,8.533-8.533V315.443l103.424,192.068
				c1.536,2.867,4.48,4.489,7.518,4.489c1.365,0,2.748-0.324,4.036-1.016c4.147-2.244,5.7-7.415,3.465-11.554l-112.99-209.843
				c18.108-2.347,32.742-15.898,36.352-33.587h86.195c14.114,0,25.6-11.477,25.6-25.6v-24.969l42.598,24.866
				c2.688,1.562,5.641,2.347,8.602,2.347c2.91,0,5.837-0.768,8.499-2.304c5.367-3.081,8.567-8.61,8.567-14.797V125.79
				C460.8,119.612,457.6,114.074,452.233,110.993z M153.6,17.067c32.939,0,59.733,26.803,59.733,59.733
				c0,5.163-0.725,10.146-1.963,14.933c-2.483,9.609-7.253,18.125-13.585,25.122c-0.324,0.35-0.64,0.717-0.973,1.067
				c-1.946,2.048-4.019,3.951-6.229,5.692c-0.401,0.324-0.819,0.614-1.229,0.922c-4.668,3.507-9.839,6.323-15.386,8.346
				c-0.461,0.171-0.913,0.35-1.382,0.503c-2.705,0.913-5.487,1.63-8.337,2.142c-0.521,0.102-1.058,0.162-1.587,0.247
				c-2.97,0.452-5.982,0.759-9.062,0.759c-3.081,0-6.093-0.307-9.062-0.759c-0.529-0.085-1.067-0.145-1.587-0.247
				c-2.85-0.512-5.632-1.229-8.337-2.142c-0.469-0.154-0.922-0.333-1.382-0.503c-5.547-2.022-10.718-4.838-15.386-8.346
				c-0.41-0.307-0.828-0.597-1.229-0.922c-2.21-1.741-4.284-3.644-6.229-5.692c-0.333-0.35-0.649-0.717-0.973-1.067
				c-6.332-6.997-11.102-15.514-13.585-25.122c-1.237-4.787-1.963-9.771-1.963-14.933C93.867,43.87,120.661,17.067,153.6,17.067z
				 M102.4,170.667h59.733c4.71,0,8.533,3.823,8.533,8.533c0,4.719-3.823,8.533-8.533,8.533H102.4c-4.71,0-8.533-3.814-8.533-8.533
				C93.867,174.49,97.69,170.667,102.4,170.667z M102.4,221.867c-4.71,0-8.533-3.814-8.533-8.533c0-4.71,3.823-8.533,8.533-8.533
				h93.867c4.71,0,8.533,3.823,8.533,8.533c0,4.719-3.823,8.533-8.533,8.533H102.4z M238.933,273.067h-17.067
				c-11.127,0-20.617-7.134-24.141-17.067h65.348C259.55,265.933,250.061,273.067,238.933,273.067z M256,221.867
				c-4.71,0-8.533-3.823-8.533-8.533c0-4.71,3.823-8.533,8.533-8.533s8.533,3.823,8.533,8.533
				C264.533,218.044,260.71,221.867,256,221.867z M298.667,221.867c-4.71,0-8.533-3.823-8.533-8.533c0-4.71,3.823-8.533,8.533-8.533
				c4.71,0,8.533,3.823,8.533,8.533C307.2,218.044,303.377,221.867,298.667,221.867z M341.333,221.867
				c-4.71,0-8.533-3.823-8.533-8.533c0-4.71,3.823-8.533,8.533-8.533s8.533,3.823,8.533,8.533
				C349.867,218.044,346.044,221.867,341.333,221.867z M347.904,91.733c-2.483,9.609-7.253,18.125-13.585,25.122
				c-0.324,0.35-0.64,0.717-0.973,1.067c-1.946,2.048-4.019,3.951-6.229,5.692c-0.401,0.324-0.819,0.614-1.229,0.922
				c-4.668,3.507-9.839,6.323-15.386,8.346c-0.461,0.171-0.913,0.35-1.382,0.503c-2.705,0.913-5.487,1.63-8.337,2.142
				c-0.521,0.102-1.058,0.162-1.587,0.247c-2.97,0.452-5.982,0.759-9.062,0.759c-3.081,0-6.093-0.307-9.062-0.759
				c-0.529-0.085-1.067-0.145-1.587-0.247c-2.85-0.512-5.632-1.229-8.337-2.142c-0.469-0.154-0.922-0.333-1.382-0.503
				c-5.547-2.022-10.718-4.838-15.386-8.346c-0.41-0.307-0.828-0.597-1.229-0.922c-2.21-1.741-4.284-3.644-6.229-5.692
				c-0.333-0.35-0.649-0.717-0.973-1.067c-6.332-6.997-11.102-15.514-13.585-25.122c-1.237-4.787-1.963-9.771-1.963-14.933
				c0-32.93,26.795-59.733,59.733-59.733c32.939,0,59.733,26.803,59.733,59.733C349.867,81.963,349.141,86.946,347.904,91.733z
				 M443.733,215.552l-51.2-29.875V179.2v-23.543l51.2-29.867V215.552z"/>
			<circle cx="264.533" cy="102.402" r="8.533"/>
			<circle cx="290.133" cy="76.802" r="8.533"/>
			<circle cx="153.6" cy="76.802" r="8.533"/>
			<circle cx="315.733" cy="51.202" r="8.533"/>
			<circle cx="128" cy="51.202" r="8.533"/>
			<circle cx="179.2" cy="102.402" r="8.533"/>
			<circle cx="128" cy="102.402" r="8.533"/>
			<circle cx="179.2" cy="51.202" r="8.533"/>
		</g>
	</g>
</g>
<g>
</g>
<g>
</g>
<g>
</g>
<g>
</g>
<g>
</g>
<g>
</g>
<g>
</g>
<g>
</g>
<g>
</g>
<g>
</g>
<g>
</g>
<g>
</g>
<g>
</g>
<g>
</g>
<g>
</g>
</svg>
